<svg 
 xmlns="http://www.w3.org/2000/svg"
 xmlns:xlink="http://www.w3.org/1999/xlink"
 width="22px" height="21px">
<path fill-rule="evenodd"  fill="rgb(255, 255, 255)"
 d="M-0.000,18.500 C-0.000,19.881 1.119,21.000 2.500,21.000 C3.881,21.000 5.000,19.881 5.000,18.500 C5.000,17.119 3.881,16.000 2.500,16.000 C1.119,16.000 -0.000,17.119 -0.000,18.500 ZM0.543,7.001 L0.543,10.952 C3.116,10.952 5.631,11.956 7.452,13.778 C9.270,15.597 10.274,18.121 10.274,20.702 L14.241,20.702 C14.241,13.198 8.041,7.001 0.543,7.001 ZM0.542,-0.000 L0.542,3.950 C9.714,3.950 17.283,11.519 17.283,20.702 L21.244,20.702 C21.244,9.342 11.900,-0.000 0.542,-0.000 Z"/>
</svg>
