<svg 
 xmlns="http://www.w3.org/2000/svg"
 xmlns:xlink="http://www.w3.org/1999/xlink"
 width="17px" height="22px">
<path fill-rule="evenodd"  fill="rgb(255, 255, 255)"
 d="M13.563,16.500 L8.260,16.500 C7.523,16.500 6.896,16.236 6.381,15.705 C5.864,15.175 5.608,14.533 5.608,13.775 L5.608,11.843 L13.165,11.843 C13.846,11.843 14.433,11.592 14.920,11.094 C15.408,10.592 15.653,9.992 15.653,9.293 C15.653,8.592 15.408,7.993 14.919,7.493 C14.430,6.993 13.841,6.743 13.157,6.743 L5.608,6.743 L5.608,2.752 C5.608,1.996 5.344,1.350 4.822,0.811 C4.302,0.272 3.672,0.001 2.941,0.001 C2.190,0.001 1.550,0.267 1.030,0.795 C0.508,1.325 0.247,1.977 0.247,2.754 L0.247,13.776 C0.247,16.043 1.030,17.980 2.596,19.588 C4.164,21.198 6.054,22.001 8.263,22.001 L13.565,22.001 C14.301,22.001 14.933,21.730 15.459,21.190 C15.985,20.653 16.247,20.005 16.247,19.251 C16.247,18.496 15.985,17.849 15.459,17.310 C14.933,16.772 14.300,16.500 13.563,16.500 Z"/>
</svg>