<svg 
 xmlns="http://www.w3.org/2000/svg"
 xmlns:xlink="http://www.w3.org/1999/xlink"
 width="10px" height="22px">
<path fill-rule="evenodd"  fill="rgb(255, 255, 255)"
 d="M2.161,4.261 C2.161,4.815 2.161,7.290 2.161,7.290 L-0.000,7.290 L-0.000,10.994 L2.161,10.994 L2.161,22.000 L6.602,22.000 L6.602,10.994 L9.581,10.994 C9.581,10.994 9.860,9.218 9.995,7.276 C9.607,7.276 6.618,7.276 6.618,7.276 C6.618,7.276 6.618,5.121 6.618,4.744 C6.618,4.365 7.102,3.856 7.581,3.856 C8.058,3.856 9.067,3.856 10.000,3.856 C10.000,3.351 10.000,1.609 10.000,-0.000 C8.754,-0.000 7.336,-0.000 6.711,-0.000 C2.052,-0.000 2.161,3.707 2.161,4.261 Z"/>
</svg>