<svg 
 xmlns="http://www.w3.org/2000/svg"
 xmlns:xlink="http://www.w3.org/1999/xlink"
 width="22px" height="23px">
<path fill-rule="evenodd"  fill="rgb(255, 255, 255)"
 d="M13.176,9.601 L13.176,11.068 L16.717,11.068 L16.717,14.735 L18.134,14.735 L18.134,11.068 L21.675,11.068 L21.675,9.601 L18.134,9.601 L18.134,5.935 L16.717,5.935 L16.717,9.601 L13.176,9.601 ZM14.132,0.256 L8.577,0.256 C7.121,0.256 5.288,0.487 3.751,1.843 C2.590,2.912 2.025,4.383 2.025,5.712 C2.025,7.963 3.643,10.245 6.501,10.245 C6.771,10.245 7.066,10.216 7.365,10.188 C7.230,10.533 7.094,10.822 7.094,11.313 C7.094,12.209 7.526,12.756 7.903,13.276 C6.691,13.362 4.425,13.507 2.752,14.603 C1.161,15.615 0.675,17.087 0.675,18.126 C0.675,20.263 2.563,22.256 6.474,22.256 C11.112,22.256 13.567,19.514 13.567,16.798 C13.567,14.808 12.488,13.825 11.301,12.756 L10.330,11.949 C10.035,11.688 9.630,11.343 9.630,10.707 C9.630,10.072 10.035,9.667 10.385,9.292 C11.517,8.339 12.650,7.329 12.650,5.192 C12.650,2.998 11.354,1.843 10.735,1.294 L12.408,1.294 L14.132,0.256 ZM11.761,17.925 C11.761,19.715 10.385,21.042 7.796,21.042 C4.911,21.042 3.049,19.570 3.049,17.521 C3.049,15.469 4.776,14.778 5.368,14.547 C6.501,14.142 7.957,14.085 8.200,14.085 C8.470,14.085 8.605,14.085 8.821,14.113 C10.871,15.672 11.761,16.453 11.761,17.925 ZM9.603,8.628 C9.171,9.089 8.442,9.436 7.768,9.436 C5.450,9.436 4.398,6.231 4.398,4.297 C4.398,3.546 4.533,2.767 4.991,2.161 C5.422,1.583 6.177,1.207 6.879,1.207 C9.116,1.207 10.277,4.441 10.277,6.520 C10.277,7.040 10.223,7.963 9.603,8.628 Z"/>
</svg>